<mxfile host="app.diagrams.net" modified="2024-06-17T07:42:55.968Z" agent="Mozilla/5.0 (Macintosh; Intel Mac OS X 10_15_7) AppleWebKit/537.36 (KHTML, like Gecko) Chrome/126.0.0.0 Safari/537.36" version="24.4.4" etag="xUFkvWDF49uCDlZuhtLD" type="github">
  <diagram name="第 1 页" id="_LvInn6k7WmdFTs_cE-U">
    <mxGraphModel>
      <root>
        <mxCell id="0" />
        <mxCell id="1" parent="0" />
      </root>
    </mxGraphModel>
  </diagram>
</mxfile>
